<?xml version="1.0" encoding="UTF-8" standalone="no"?><!DOCTYPE svg PUBLIC "-//W3C//DTD SVG 1.1//EN" "http://www.w3.org/Graphics/SVG/1.1/DTD/svg11.dtd"><svg width="100%" height="100%" viewBox="0 0 1000 1000" version="1.1" xmlns="http://www.w3.org/2000/svg" xmlns:xlink="http://www.w3.org/1999/xlink" xml:space="preserve" xmlns:serif="http://www.serif.com/" style="fill-rule:evenodd;clip-rule:evenodd;stroke-linejoin:round;stroke-miterlimit:1.41421;"><g id="Layer-1" serif:id="Layer 1"><path d="M953.407,976.357c-0.3,0.843 -0.391,1.752 -0.258,2.664c0.098,0.685 0.319,1.33 0.645,1.917l-11.351,-8.469l2.056,-2.758l8.908,6.646Z" style="fill-rule:nonzero;"/><path d="M955.323,971.102c0.009,0.126 0.024,0.251 0.042,0.378c0.097,0.661 0.296,1.288 0.584,1.867c-0.117,0.065 -0.232,0.134 -0.345,0.207c-0.397,0.261 -0.755,0.57 -1.072,0.921c-0.009,0.01 -0.017,0.019 -0.026,0.028c-0.01,0.011 -0.02,0.023 -0.03,0.035c-0.04,0.045 -0.079,0.091 -0.117,0.138l-12.266,-9.15l2.058,-2.757l11.172,8.333Z" style="fill-rule:nonzero;"/><path d="M957.384,965.96c-0.31,0.277 -0.591,0.583 -0.842,0.92c-0.003,0.004 -0.006,0.007 -0.009,0.011c-0.004,0.004 -0.006,0.009 -0.01,0.013c-0.449,0.603 -0.78,1.27 -0.982,1.973l-7.482,-5.581l2.056,-2.758l7.269,5.422Z" style="fill-rule:nonzero;"/><path d="M959.863,961.13c-0.345,0.947 -0.452,1.97 -0.304,2.995c0.027,0.186 0.063,0.368 0.105,0.547c-0.182,0.056 -0.363,0.122 -0.54,0.196l-13.162,-9.817l2.057,-2.757l11.844,8.836Z" style="fill-rule:nonzero;"/><path d="M963.738,957.338c-0.494,0.165 -0.973,0.395 -1.421,0.689c-0.583,0.383 -1.091,0.857 -1.516,1.413l-5.405,-4.033l2.057,-2.756l6.285,4.687Z" style="fill-rule:nonzero;"/><path d="M967.422,953.404c-0.095,0.11 -0.188,0.226 -0.275,0.343c-0.002,0.001 -0.003,0.003 -0.004,0.006c-0.003,0.002 -0.003,0.004 -0.005,0.006c-0.635,0.85 -1.03,1.828 -1.167,2.854l-11.144,-8.314l2.056,-2.756l10.539,7.861Z" style="fill-rule:nonzero;"/><path d="M973.82,951.497c-1.622,-0.461 -3.403,-0.252 -4.894,0.641l-9.451,-7.051l2.058,-2.757l12.287,9.167Z" style="fill-rule:nonzero;"/><path d="M991.15,965.35c0.267,0.811 0.209,1.676 -0.166,2.442l-4.633,9.203c-0.389,0.774 -1.058,1.35 -1.881,1.622c-0.823,0.272 -1.703,0.207 -2.477,-0.182c-0.149,-0.076 -0.291,-0.163 -0.426,-0.258c0.784,-0.349 1.491,-0.897 2.04,-1.632c1.038,-1.391 1.27,-3.137 0.781,-4.678c1.616,0.03 3.224,-0.69 4.262,-2.082c0.829,-1.111 1.175,-2.478 0.975,-3.849c-0.155,-1.067 -0.627,-2.037 -1.352,-2.805c0.431,0.027 0.858,0.139 1.254,0.339c0.774,0.389 1.351,1.057 1.623,1.88m-19.807,6.096l0,0c-0.001,-0.001 -0.002,-0.001 -0.003,-0.002l-0.837,-0.625l0,0c-1.435,-1.07 -1.731,-3.107 -0.661,-4.542c1.07,-1.434 3.108,-1.731 4.542,-0.661l7.041,5.253c1.403,1.078 1.685,3.093 0.624,4.515c-1.07,1.434 -3.107,1.731 -4.542,0.661l0,0l-6.164,-4.599Zm4.625,9.924c-1.07,1.434 -3.108,1.731 -4.542,0.66l0,0l-5.131,-3.827c-1.43,-1.071 -1.725,-3.106 -0.656,-4.539c1.068,-1.432 3.101,-1.73 4.535,-0.666l5.133,3.829c1.435,1.071 1.731,3.108 0.661,4.543m-5.963,5.301c-0.866,1.161 -2.515,1.401 -3.676,0.535l0,0l-3.471,-2.59c-1.156,-0.867 -1.394,-2.512 -0.529,-3.672c0,0 0,0 0,0c0.865,-1.159 2.511,-1.4 3.672,-0.537l3.469,2.588c1.161,0.866 1.401,2.515 0.535,3.676m-9.234,-6.888c-0.02,0.027 -0.038,0.054 -0.057,0.081c-0.878,1.09 -2.474,1.299 -3.605,0.455c-1.158,-0.864 -1.397,-2.508 -0.533,-3.666c0.863,-1.158 2.508,-1.398 3.666,-0.534c1.131,0.844 1.385,2.433 0.591,3.586c-0.021,0.026 -0.042,0.051 -0.062,0.078m2.614,-11.772c1.421,1.06 1.714,3.078 0.654,4.499c-1.057,1.417 -3.069,1.712 -4.489,0.66c-1.417,-1.07 -1.709,-3.088 -0.654,-4.517c1.062,-1.41 3.072,-1.699 4.489,-0.642m4.194,-7.354c1.42,1.059 1.714,3.077 0.654,4.498c-0.97,1.3 -2.741,1.655 -4.124,0.895l-0.331,-0.247c-1.426,-1.064 -1.726,-3.084 -0.678,-4.517c1.064,-1.399 3.066,-1.683 4.479,-0.629m1.927,-5.143c1.061,-1.416 3.075,-1.707 4.493,-0.649c1.421,1.06 1.715,3.078 0.655,4.499c-1.06,1.421 -3.078,1.714 -4.499,0.654c-0.575,-0.429 -0.965,-1.015 -1.156,-1.656c-0.276,-0.943 -0.123,-2 0.507,-2.848m17.587,13.11c-1.071,1.434 -3.108,1.731 -4.543,0.66l0.001,0l-5.659,-4.221c-1.423,-1.073 -1.715,-3.102 -0.648,-4.532c1.07,-1.434 3.106,-1.731 4.54,-0.663l5.648,4.213c1.434,1.071 1.731,3.108 0.661,4.543m3.308,-6.89c-1.301,-0.655 -2.816,-0.727 -4.163,-0.22l-4.29,-3.201l0,0c-0.001,-0.001 -0.002,-0.002 -0.003,-0.002l-6.731,-5.022c-2.293,-1.71 -5.55,-1.236 -7.261,1.057c-0.001,0.002 -0.003,0.004 -0.004,0.006c-0.002,0.002 -0.004,0.004 -0.005,0.006c-0.467,0.626 -0.77,1.325 -0.916,2.044c-0.002,0.007 -0.003,0.013 -0.005,0.02c-0.014,0.07 -0.026,0.141 -0.037,0.212c-0.002,0.013 -0.005,0.026 -0.007,0.039c-0.01,0.067 -0.018,0.133 -0.025,0.2c-0.002,0.017 -0.004,0.035 -0.006,0.052c-0.006,0.065 -0.011,0.13 -0.015,0.195c-0.001,0.019 -0.003,0.038 -0.004,0.058c-0.003,0.065 -0.004,0.131 -0.005,0.196c0,0.019 -0.001,0.038 -0.001,0.057c-0.001,0.066 0.002,0.132 0.004,0.198c0.001,0.019 0,0.037 0.001,0.056c0.003,0.056 0.008,0.112 0.012,0.167c0.009,0.105 0.019,0.21 0.034,0.315c-1.967,-0.487 -4.127,0.208 -5.413,1.932c-0.007,0.009 -0.013,0.018 -0.019,0.026c-0.006,0.008 -0.013,0.016 -0.019,0.024c-1.174,1.575 -1.312,3.606 -0.535,5.273c-1.398,0.141 -2.735,0.844 -3.64,2.057c-0.003,0.004 -0.006,0.009 -0.009,0.013c-0.003,0.004 -0.007,0.008 -0.01,0.012c-1.432,1.92 -1.323,4.521 0.11,6.31c-0.942,0.261 -1.807,0.824 -2.436,1.666c-0.729,0.978 -1.035,2.182 -0.859,3.39c0.176,1.208 0.811,2.275 1.79,3.005l5.76,4.297c0.003,0.002 0.005,0.004 0.008,0.006l0,0l3.465,2.585l0,0c2.02,1.506 4.888,1.089 6.395,-0.93c0.712,-0.955 1.019,-2.124 0.87,-3.302c1.878,0.341 3.877,-0.369 5.093,-2c0.829,-1.111 1.176,-2.478 0.976,-3.849c-0.007,-0.048 -0.016,-0.095 -0.024,-0.143c0.267,0.05 0.538,0.079 0.808,0.087c0.479,0.647 1.104,1.175 1.834,1.543c1.238,0.624 2.644,0.728 3.96,0.293c1.023,-0.338 1.896,-0.97 2.526,-1.815c0.181,-0.243 0.342,-0.503 0.481,-0.779l4.616,-9.168c0.623,-1.237 0.727,-2.643 0.292,-3.959c-0.435,-1.316 -1.356,-2.384 -2.593,-3.007" style="fill-rule:nonzero;"/></g></svg>