<?xml version="1.0" encoding="UTF-8" standalone="no"?><!DOCTYPE svg PUBLIC "-//W3C//DTD SVG 1.1//EN" "http://www.w3.org/Graphics/SVG/1.1/DTD/svg11.dtd"><svg width="100%" height="100%" viewBox="0 0 2179 524" version="1.1" xmlns="http://www.w3.org/2000/svg" xmlns:xlink="http://www.w3.org/1999/xlink" xml:space="preserve" xmlns:serif="http://www.serif.com/" style="fill-rule:evenodd;clip-rule:evenodd;stroke-linejoin:round;stroke-miterlimit:1.41421;"><path d="M784.688,185.025l0,192.633l-38.253,0l0,-65.305l-88.802,0l0,65.305l-37.981,0l0,-192.633l37.981,0l0,93.72l88.802,0l0,-93.72l38.253,0Z" style="fill:#19547b;fill-rule:nonzero;"/><path d="M880.326,306.069l58.2,0l-29.238,-63.665l-28.962,63.665Zm72.134,32.515l-86.071,0l-17.212,39.073l-41.26,0l91.808,-192.632l19.4,0l92.082,192.632l-41.26,0l-17.487,-39.073Z" style="fill:#19547b;fill-rule:nonzero;"/><path d="M1168.05,185.025l-74.048,127.328l0,65.305l-39.346,0l0,-65.305l-73.775,-127.328l44.539,0l49.183,84.977l48.636,-84.977l44.811,0Z" style="fill:#19547b;fill-rule:nonzero;"/><path d="M1387.73,185.025l0,192.633l-39.346,0l0,-106.563l-59.565,83.61l-59.84,-83.61l0,106.563l-39.072,0l0,-192.633l19.126,0l79.786,110.389l79.785,-110.389l19.126,0Z" style="fill:#19547b;fill-rule:nonzero;"/><path d="M1483.37,306.069l58.2,0l-29.237,-63.665l-28.963,63.665Zm72.134,32.515l-86.07,0l-17.212,39.073l-41.26,0l91.807,-192.632l19.402,0l92.08,192.632l-41.26,0l-17.487,-39.073Z" style="fill:#19547b;fill-rule:nonzero;"/><path d="M1809.62,377.657l-51.368,0l-60.66,-67.216l-22.132,23.498l0,43.718l-37.98,0l0,-192.633l37.98,0l0,92.627l84.431,-92.627l47.269,0l-84.157,95.087l86.617,97.546Z" style="fill:#19547b;fill-rule:nonzero;"/><path d="M1980.66,343.776l0,33.881l-147.821,0l0,-192.632l142.083,0l0,33.881l-104.103,0l0,48.91l87.163,0l0,32.788l-87.163,0l0,43.172l109.841,0Z" style="fill:#19547b;fill-rule:nonzero;"/><path d="M2051.16,295.959l34.427,0c31.149,0 45.905,-15.848 45.905,-38.526c0,-19.947 -10.383,-38.527 -40.713,-38.527l-39.619,0l0,77.053Zm43.171,31.969c-2.185,0.273 -4.918,0.273 -7.378,0.273l-35.793,0l0,49.456l-39.073,0l0,-192.632l84.976,0c56.288,0 75.414,33.335 75.414,69.401c0,33.062 -13.662,54.921 -39.073,65.852l44.811,57.379l-46.723,0l-37.161,-49.729Z" style="fill:#19547b;fill-rule:nonzero;"/><path d="M81.809,279.019c-8.302,6.289 -14.991,14.542 -19.516,24.258c-3.411,7.288 -5.391,14.975 -5.957,22.761l-56.336,-154.8l37.602,-13.693l44.207,121.474Z" style="fill:#de6161;fill-rule:nonzero;"/><path d="M133.969,240.153c-0.716,1.281 -1.364,2.595 -1.996,3.943c-3.278,7.038 -5.341,14.409 -6.24,21.879c-1.547,-0.116 -3.111,-0.183 -4.675,-0.183c-5.524,0 -10.981,0.715 -16.305,2.113c-0.15,0.033 -0.283,0.067 -0.433,0.1c-0.166,0.05 -0.333,0.1 -0.516,0.15c-0.665,0.183 -1.347,0.382 -2.013,0.599l-60.878,-167.262l37.601,-13.677l55.455,152.338Z" style="fill:#de6161;fill-rule:nonzero;"/><path d="M186.828,203.299c-4.775,0.716 -9.467,1.897 -14.059,3.577c-0.05,0.017 -0.1,0.034 -0.15,0.05c-0.067,0.017 -0.117,0.05 -0.183,0.067c-8.219,2.994 -15.69,7.371 -22.145,12.911l-37.136,-102.024l37.602,-13.693l36.071,99.112Z" style="fill:#de6161;fill-rule:nonzero;"/><path d="M241.767,172.153c-9.401,7.005 -16.971,16.272 -22.079,27.187c-0.915,1.979 -1.73,3.976 -2.462,5.989c-2.13,-0.615 -4.309,-1.131 -6.506,-1.547l-65.337,-179.458l37.602,-13.676l58.782,161.505Z" style="fill:#149a19;fill-rule:nonzero;"/><path d="M303.644,160.008c-5.857,-1.547 -11.979,-2.363 -18.219,-2.363c-8.102,0 -16.072,1.365 -23.759,4.06l-26.82,-73.706l37.602,-13.677l31.196,85.686Z" style="fill:#149a19;fill-rule:nonzero;"/><path d="M364.572,145.266c-1.631,0.466 -3.261,0.998 -4.858,1.58c-0.034,0 -0.05,0.017 -0.084,0.034c-0.033,0 -0.049,0.016 -0.083,0.033c-11.596,4.21 -21.679,11.197 -29.566,20.298l-55.304,-151.971l37.585,-13.677l52.31,143.703Z" style="fill:#149a19;fill-rule:nonzero;"/><path d="M438.96,167.561c-12.828,-14.841 -31.479,-24.175 -51.678,-25.007l-46.902,-128.878l37.602,-13.676l60.978,167.561Z" style="fill:#149a19;fill-rule:nonzero;"/><path d="M519.065,412.864c-2.571,9.593 -8.664,17.633 -17.188,22.686l-103.786,59.922c-8.73,5.043 -18.909,6.379 -28.651,3.772c-9.74,-2.61 -17.88,-8.855 -22.915,-17.582c-0.973,-1.687 -1.801,-3.436 -2.498,-5.226c9.846,1.604 20.219,0.801 30.24,-2.847c18.976,-6.907 32.38,-22.406 37.454,-40.51c15.524,10.606 35.755,13.864 54.731,6.958c15.147,-5.514 27.24,-16.595 34.053,-31.204c5.302,-11.37 6.893,-23.813 4.747,-35.914c4.022,3.019 7.461,6.837 10.034,11.301c5.047,8.73 6.388,18.902 3.779,28.644m-231.508,-67.132l0.002,0c-0.004,-0.011 -0.008,-0.021 -0.012,-0.032l-4.158,-11.423l0.001,0c-7.119,-19.56 3.002,-41.265 22.563,-48.385c19.559,-7.118 41.262,3.002 48.381,22.561l34.948,96.019c6.764,19.428 -3.35,40.825 -22.742,47.882c-19.561,7.12 -41.268,-3.002 -48.387,-22.563l0.002,0.002l-30.597,-84.061Zm-18.355,126.019c-19.561,7.119 -41.267,-3.002 -48.387,-22.563l0.003,0l-25.466,-69.962c-7.077,-19.547 3.043,-41.216 22.585,-48.33c19.527,-7.107 41.191,2.969 48.348,22.465l25.48,70.003c7.12,19.56 -3.002,41.267 -22.563,48.387m-91.822,13.494c-15.829,5.76 -33.394,-2.432 -39.158,-18.26l0.002,0l-17.23,-47.337c-5.705,-15.81 2.483,-33.328 18.287,-39.08c0.001,0 0.002,0 0.002,-0.001c15.814,-5.754 33.358,2.415 39.138,18.214l17.218,47.304c5.762,15.831 -2.428,33.397 -18.259,39.159m-45.827,-125.91c-0.363,0.132 -0.715,0.283 -1.074,0.422c-15.496,4.991 -32.347,-3.155 -37.961,-18.58c-5.747,-15.789 2.423,-33.31 18.213,-39.057c15.789,-5.747 33.31,2.423 39.056,18.213c5.615,15.425 -2.059,32.497 -17.138,38.635c-0.365,0.124 -0.732,0.235 -1.096,0.367m100.542,-97.79c7.05,19.372 -2.973,40.868 -22.346,47.919c-19.333,7.037 -40.78,-2.934 -47.874,-22.23c-6.941,-19.443 3.097,-40.936 22.472,-48.092c19.327,-6.93 40.717,3.087 47.748,22.403m87.717,-44.752c7.051,19.373 -2.972,40.868 -22.345,47.919c-17.727,6.453 -37.225,-1.399 -45.813,-17.622l-1.642,-4.509c-7.077,-19.444 2.891,-41.002 22.227,-48.249c19.282,-6.809 40.564,3.204 47.573,22.461m51.562,-37.711c19.35,-6.99 40.794,3.03 47.834,22.374c7.051,19.372 -2.973,40.87 -22.345,47.921c-19.373,7.05 -40.87,-2.974 -47.921,-22.346c-2.856,-7.846 -2.909,-16.039 -0.677,-23.481c3.339,-10.936 11.576,-20.239 23.109,-24.468m87.348,239.721c-19.561,7.12 -41.267,-3.002 -48.386,-22.563l0.002,0.001l-28.086,-77.162c-6.992,-19.515 3.125,-41.11 22.625,-48.208c19.55,-7.115 41.244,2.992 48.376,22.531l28.032,77.014c7.12,19.562 -3.002,41.267 -22.563,48.387m76.134,-45.881c-8.461,-14.668 -22.731,-25.04 -39.063,-28.709l-21.294,-58.506l0.001,0c-0.005,-0.013 -0.01,-0.025 -0.015,-0.037l-33.407,-91.79c-11.381,-31.267 -46.079,-47.446 -77.348,-36.065c-0.029,0.01 -0.057,0.023 -0.086,0.034c-0.028,0.01 -0.057,0.018 -0.085,0.028c-8.539,3.108 -15.938,7.973 -21.956,14.029c-0.054,0.055 -0.111,0.107 -0.165,0.162c-0.588,0.596 -1.158,1.207 -1.718,1.826c-0.104,0.114 -0.211,0.223 -0.314,0.338c-0.521,0.584 -1.024,1.182 -1.522,1.785c-0.129,0.156 -0.264,0.307 -0.391,0.465c-0.477,0.59 -0.934,1.194 -1.387,1.8c-0.135,0.18 -0.276,0.354 -0.408,0.535c-0.45,0.616 -0.879,1.245 -1.305,1.876c-0.123,0.182 -0.252,0.359 -0.373,0.543c-0.424,0.644 -0.827,1.301 -1.225,1.96c-0.112,0.185 -0.231,0.363 -0.341,0.549c-0.331,0.561 -0.64,1.134 -0.953,1.705c-0.588,1.074 -1.154,2.164 -1.682,3.279c-16.019,-17.297 -41.462,-24.32 -64.97,-15.764c-0.117,0.042 -0.229,0.092 -0.346,0.135c-0.112,0.04 -0.226,0.073 -0.338,0.114c-21.469,7.814 -35.775,26.687 -38.847,47.856c-14.499,-7.554 -31.993,-9.248 -48.531,-3.228c-0.059,0.021 -0.115,0.046 -0.173,0.068c-0.056,0.02 -0.112,0.035 -0.168,0.056c-26.188,9.532 -41.726,35.52 -39.201,62.058c-10.827,-3.467 -22.834,-3.521 -34.319,0.659c-13.341,4.856 -23.992,14.616 -29.992,27.481c-5.998,12.866 -6.628,27.299 -1.772,40.637l28.589,78.548c0.013,0.036 0.023,0.072 0.036,0.108l0.003,-0.001l17.2,47.256l-0.002,0.001c10.023,27.538 40.582,41.789 68.121,31.766c13.016,-4.738 23.459,-14.152 29.532,-26.556c16.086,15.299 40.051,21.156 62.29,13.062c15.147,-5.514 27.241,-16.596 34.053,-31.204c0.239,-0.512 0.453,-1.032 0.677,-1.548c2.281,2.201 4.728,4.201 7.305,6.005c0.526,9.355 3.235,18.476 7.983,26.714c8.059,13.961 21.071,23.946 36.645,28.118c12.098,3.242 24.615,2.67 36.147,-1.528c3.307,-1.203 6.535,-2.706 9.646,-4.501l103.395,-59.692c13.956,-8.056 23.938,-21.068 28.108,-36.64c4.172,-15.574 2.027,-31.836 -6.034,-45.787" style="fill:#19547b;fill-rule:nonzero;"/></svg>